<mxfile host="app.diagrams.net" modified="2024-03-28T14:18:52.442Z" agent="Mozilla/5.0 (Windows NT 10.0; Win64; x64) AppleWebKit/537.36 (KHTML, like Gecko) Chrome/122.0.0.0 Safari/537.36" etag="kCoGjAtyYpY1ir7fm14m" version="24.0.7" type="github">
  <diagram name="Page-1" id="2MS-s6YLC5v6uG3apD_g">
    <mxGraphModel dx="794" dy="458" grid="1" gridSize="10" guides="1" tooltips="1" connect="1" arrows="1" fold="1" page="1" pageScale="1" pageWidth="827" pageHeight="1169" math="0" shadow="0">
      <root>
        <mxCell id="0" />
        <mxCell id="1" parent="0" />
        <mxCell id="e3658H9JQ2eBRHRdhJrN-2" value="Animal" style="swimlane;fontStyle=1;align=center;verticalAlign=top;childLayout=stackLayout;horizontal=1;startSize=26;horizontalStack=0;resizeParent=1;resizeParentMax=0;resizeLast=0;collapsible=1;marginBottom=0;whiteSpace=wrap;html=1;" vertex="1" parent="1">
          <mxGeometry x="360" y="40" width="280" height="460" as="geometry" />
        </mxCell>
        <mxCell id="e3658H9JQ2eBRHRdhJrN-3" value="&lt;div&gt;- name: string&lt;br&gt;&lt;/div&gt;- numberOfLegs: number (+0)&lt;div&gt;- numberOfEyes: number (+0)&lt;/div&gt;&lt;div&gt;- color: string&lt;/div&gt;&lt;div&gt;- age: number (+0)&lt;/div&gt;&lt;div&gt;- typeOfAnimal: string&lt;/div&gt;&lt;div&gt;- weight: number (+0.1)&lt;/div&gt;" style="text;strokeColor=none;fillColor=none;align=left;verticalAlign=top;spacingLeft=4;spacingRight=4;overflow=hidden;rotatable=0;points=[[0,0.5],[1,0.5]];portConstraint=eastwest;whiteSpace=wrap;html=1;" vertex="1" parent="e3658H9JQ2eBRHRdhJrN-2">
          <mxGeometry y="26" width="280" height="124" as="geometry" />
        </mxCell>
        <mxCell id="e3658H9JQ2eBRHRdhJrN-4" value="" style="line;strokeWidth=1;fillColor=none;align=left;verticalAlign=middle;spacingTop=-1;spacingLeft=3;spacingRight=3;rotatable=0;labelPosition=right;points=[];portConstraint=eastwest;strokeColor=inherit;" vertex="1" parent="e3658H9JQ2eBRHRdhJrN-2">
          <mxGeometry y="150" width="280" height="8" as="geometry" />
        </mxCell>
        <mxCell id="e3658H9JQ2eBRHRdhJrN-5" value="+ greet(message: string, type: string&amp;nbsp;&lt;span style=&quot;background-color: initial;&quot;&gt;name:string):string&lt;/span&gt;&lt;div&gt;+ move(distance:number, speed:number)&lt;br&gt;&lt;div&gt;&lt;div&gt;+ getAnimal():string&lt;br&gt;&lt;/div&gt;&lt;div&gt;&lt;br&gt;&lt;/div&gt;&lt;div&gt;+ getName()&lt;/div&gt;&lt;div&gt;+ setName(newName):string&lt;/div&gt;&lt;div&gt;+ getNumberOfLegs()&lt;br&gt;&lt;/div&gt;&lt;div&gt;+ setNumberOfLegs(newNumberofLegs): integer(0-*)&lt;/div&gt;&lt;div&gt;+ getNumberOfEyes()&lt;br&gt;&lt;/div&gt;&lt;div&gt;+ setNumberOfEyes(newNumberOfEyes): integer&lt;/div&gt;&lt;div&gt;+ getTypeOfAnimal()&lt;br&gt;&lt;/div&gt;&lt;div&gt;+ setTypeOfAnimal(newType): string&lt;/div&gt;&lt;div&gt;+ getColor()&lt;br&gt;&lt;/div&gt;&lt;div&gt;+ setColor(newColor): string&lt;/div&gt;&lt;div&gt;+ getAge()&lt;/div&gt;&lt;div&gt;+ setAge(newAge): integer&amp;nbsp;&lt;/div&gt;&lt;div&gt;+getWeight()&lt;/div&gt;&lt;div&gt;+ setWeight(newWeight)&lt;/div&gt;&lt;div&gt;&lt;br&gt;&lt;/div&gt;&lt;/div&gt;&lt;/div&gt;" style="text;strokeColor=none;fillColor=none;align=left;verticalAlign=top;spacingLeft=4;spacingRight=4;overflow=hidden;rotatable=0;points=[[0,0.5],[1,0.5]];portConstraint=eastwest;whiteSpace=wrap;html=1;" vertex="1" parent="e3658H9JQ2eBRHRdhJrN-2">
          <mxGeometry y="158" width="280" height="302" as="geometry" />
        </mxCell>
        <mxCell id="e3658H9JQ2eBRHRdhJrN-10" value="GroundAnimal" style="swimlane;fontStyle=1;align=center;verticalAlign=top;childLayout=stackLayout;horizontal=1;startSize=26;horizontalStack=0;resizeParent=1;resizeParentMax=0;resizeLast=0;collapsible=1;marginBottom=0;whiteSpace=wrap;html=1;" vertex="1" parent="1">
          <mxGeometry x="40" y="560" width="280" height="86" as="geometry" />
        </mxCell>
        <mxCell id="e3658H9JQ2eBRHRdhJrN-11" value="+ field: type" style="text;strokeColor=none;fillColor=none;align=left;verticalAlign=top;spacingLeft=4;spacingRight=4;overflow=hidden;rotatable=0;points=[[0,0.5],[1,0.5]];portConstraint=eastwest;whiteSpace=wrap;html=1;" vertex="1" parent="e3658H9JQ2eBRHRdhJrN-10">
          <mxGeometry y="26" width="280" height="26" as="geometry" />
        </mxCell>
        <mxCell id="e3658H9JQ2eBRHRdhJrN-12" value="" style="line;strokeWidth=1;fillColor=none;align=left;verticalAlign=middle;spacingTop=-1;spacingLeft=3;spacingRight=3;rotatable=0;labelPosition=right;points=[];portConstraint=eastwest;strokeColor=inherit;" vertex="1" parent="e3658H9JQ2eBRHRdhJrN-10">
          <mxGeometry y="52" width="280" height="8" as="geometry" />
        </mxCell>
        <mxCell id="e3658H9JQ2eBRHRdhJrN-13" value="+ move (speed, distance)&amp;nbsp;&amp;nbsp;(from move())" style="text;strokeColor=none;fillColor=none;align=left;verticalAlign=top;spacingLeft=4;spacingRight=4;overflow=hidden;rotatable=0;points=[[0,0.5],[1,0.5]];portConstraint=eastwest;whiteSpace=wrap;html=1;" vertex="1" parent="e3658H9JQ2eBRHRdhJrN-10">
          <mxGeometry y="60" width="280" height="26" as="geometry" />
        </mxCell>
        <mxCell id="e3658H9JQ2eBRHRdhJrN-14" value="AirAnimal" style="swimlane;fontStyle=1;align=center;verticalAlign=top;childLayout=stackLayout;horizontal=1;startSize=26;horizontalStack=0;resizeParent=1;resizeParentMax=0;resizeLast=0;collapsible=1;marginBottom=0;whiteSpace=wrap;html=1;" vertex="1" parent="1">
          <mxGeometry x="680" y="560" width="280" height="120" as="geometry" />
        </mxCell>
        <mxCell id="e3658H9JQ2eBRHRdhJrN-15" value="+ field: type" style="text;strokeColor=none;fillColor=none;align=left;verticalAlign=top;spacingLeft=4;spacingRight=4;overflow=hidden;rotatable=0;points=[[0,0.5],[1,0.5]];portConstraint=eastwest;whiteSpace=wrap;html=1;" vertex="1" parent="e3658H9JQ2eBRHRdhJrN-14">
          <mxGeometry y="26" width="280" height="26" as="geometry" />
        </mxCell>
        <mxCell id="e3658H9JQ2eBRHRdhJrN-16" value="" style="line;strokeWidth=1;fillColor=none;align=left;verticalAlign=middle;spacingTop=-1;spacingLeft=3;spacingRight=3;rotatable=0;labelPosition=right;points=[];portConstraint=eastwest;strokeColor=inherit;" vertex="1" parent="e3658H9JQ2eBRHRdhJrN-14">
          <mxGeometry y="52" width="280" height="8" as="geometry" />
        </mxCell>
        <mxCell id="e3658H9JQ2eBRHRdhJrN-17" value="+ fly (speed, distance)&amp;nbsp;&amp;nbsp;(from move())&lt;div&gt;+dive(speed, distance)&lt;br&gt;&lt;/div&gt;" style="text;strokeColor=none;fillColor=none;align=left;verticalAlign=top;spacingLeft=4;spacingRight=4;overflow=hidden;rotatable=0;points=[[0,0.5],[1,0.5]];portConstraint=eastwest;whiteSpace=wrap;html=1;" vertex="1" parent="e3658H9JQ2eBRHRdhJrN-14">
          <mxGeometry y="60" width="280" height="60" as="geometry" />
        </mxCell>
        <mxCell id="e3658H9JQ2eBRHRdhJrN-18" value="WaterAnimal" style="swimlane;fontStyle=1;align=center;verticalAlign=top;childLayout=stackLayout;horizontal=1;startSize=26;horizontalStack=0;resizeParent=1;resizeParentMax=0;resizeLast=0;collapsible=1;marginBottom=0;whiteSpace=wrap;html=1;" vertex="1" parent="1">
          <mxGeometry x="360" y="560" width="280" height="120" as="geometry" />
        </mxCell>
        <mxCell id="e3658H9JQ2eBRHRdhJrN-19" value="+ field: type" style="text;strokeColor=none;fillColor=none;align=left;verticalAlign=top;spacingLeft=4;spacingRight=4;overflow=hidden;rotatable=0;points=[[0,0.5],[1,0.5]];portConstraint=eastwest;whiteSpace=wrap;html=1;" vertex="1" parent="e3658H9JQ2eBRHRdhJrN-18">
          <mxGeometry y="26" width="280" height="26" as="geometry" />
        </mxCell>
        <mxCell id="e3658H9JQ2eBRHRdhJrN-20" value="" style="line;strokeWidth=1;fillColor=none;align=left;verticalAlign=middle;spacingTop=-1;spacingLeft=3;spacingRight=3;rotatable=0;labelPosition=right;points=[];portConstraint=eastwest;strokeColor=inherit;" vertex="1" parent="e3658H9JQ2eBRHRdhJrN-18">
          <mxGeometry y="52" width="280" height="8" as="geometry" />
        </mxCell>
        <mxCell id="e3658H9JQ2eBRHRdhJrN-21" value="+ swim(speed, distance) (from move())&lt;div&gt;+dive(speed, distance)&lt;/div&gt;" style="text;strokeColor=none;fillColor=none;align=left;verticalAlign=top;spacingLeft=4;spacingRight=4;overflow=hidden;rotatable=0;points=[[0,0.5],[1,0.5]];portConstraint=eastwest;whiteSpace=wrap;html=1;" vertex="1" parent="e3658H9JQ2eBRHRdhJrN-18">
          <mxGeometry y="60" width="280" height="60" as="geometry" />
        </mxCell>
        <mxCell id="e3658H9JQ2eBRHRdhJrN-23" value="Extends" style="endArrow=block;endSize=16;endFill=0;html=1;rounded=0;entryX=0.012;entryY=1.007;entryDx=0;entryDy=0;entryPerimeter=0;exitX=0.5;exitY=0;exitDx=0;exitDy=0;" edge="1" parent="1" source="e3658H9JQ2eBRHRdhJrN-10" target="e3658H9JQ2eBRHRdhJrN-5">
          <mxGeometry width="160" relative="1" as="geometry">
            <mxPoint x="420" y="640" as="sourcePoint" />
            <mxPoint x="580" y="640" as="targetPoint" />
          </mxGeometry>
        </mxCell>
        <mxCell id="e3658H9JQ2eBRHRdhJrN-24" value="Extends" style="endArrow=block;endSize=16;endFill=0;html=1;rounded=0;entryX=0.488;entryY=0.998;entryDx=0;entryDy=0;entryPerimeter=0;exitX=0.5;exitY=0;exitDx=0;exitDy=0;" edge="1" parent="1" source="e3658H9JQ2eBRHRdhJrN-18" target="e3658H9JQ2eBRHRdhJrN-5">
          <mxGeometry width="160" relative="1" as="geometry">
            <mxPoint x="310" y="570" as="sourcePoint" />
            <mxPoint x="477" y="510" as="targetPoint" />
          </mxGeometry>
        </mxCell>
        <mxCell id="e3658H9JQ2eBRHRdhJrN-25" value="Extends" style="endArrow=block;endSize=16;endFill=0;html=1;rounded=0;entryX=0.981;entryY=1.004;entryDx=0;entryDy=0;entryPerimeter=0;exitX=0.5;exitY=0;exitDx=0;exitDy=0;" edge="1" parent="1" source="e3658H9JQ2eBRHRdhJrN-14" target="e3658H9JQ2eBRHRdhJrN-5">
          <mxGeometry width="160" relative="1" as="geometry">
            <mxPoint x="320" y="580" as="sourcePoint" />
            <mxPoint x="487" y="520" as="targetPoint" />
            <Array as="points" />
          </mxGeometry>
        </mxCell>
        <mxCell id="e3658H9JQ2eBRHRdhJrN-26" value="Extends" style="endArrow=block;endSize=16;endFill=0;html=1;rounded=0;entryX=0.052;entryY=1.015;entryDx=0;entryDy=0;entryPerimeter=0;exitX=0.5;exitY=0;exitDx=0;exitDy=0;" edge="1" parent="1" source="e3658H9JQ2eBRHRdhJrN-28" target="e3658H9JQ2eBRHRdhJrN-5">
          <mxGeometry width="160" relative="1" as="geometry">
            <mxPoint x="300" y="750" as="sourcePoint" />
            <mxPoint x="497" y="530" as="targetPoint" />
          </mxGeometry>
        </mxCell>
        <mxCell id="e3658H9JQ2eBRHRdhJrN-28" value="EivindAnimal" style="swimlane;fontStyle=1;align=center;verticalAlign=top;childLayout=stackLayout;horizontal=1;startSize=26;horizontalStack=0;resizeParent=1;resizeParentMax=0;resizeLast=0;collapsible=1;marginBottom=0;whiteSpace=wrap;html=1;" vertex="1" parent="1">
          <mxGeometry x="90" y="760" width="280" height="86" as="geometry" />
        </mxCell>
        <mxCell id="e3658H9JQ2eBRHRdhJrN-29" value="+ field: type" style="text;strokeColor=none;fillColor=none;align=left;verticalAlign=top;spacingLeft=4;spacingRight=4;overflow=hidden;rotatable=0;points=[[0,0.5],[1,0.5]];portConstraint=eastwest;whiteSpace=wrap;html=1;" vertex="1" parent="e3658H9JQ2eBRHRdhJrN-28">
          <mxGeometry y="26" width="280" height="26" as="geometry" />
        </mxCell>
        <mxCell id="e3658H9JQ2eBRHRdhJrN-30" value="" style="line;strokeWidth=1;fillColor=none;align=left;verticalAlign=middle;spacingTop=-1;spacingLeft=3;spacingRight=3;rotatable=0;labelPosition=right;points=[];portConstraint=eastwest;strokeColor=inherit;" vertex="1" parent="e3658H9JQ2eBRHRdhJrN-28">
          <mxGeometry y="52" width="280" height="8" as="geometry" />
        </mxCell>
        <mxCell id="e3658H9JQ2eBRHRdhJrN-31" value="+ method(type): type" style="text;strokeColor=none;fillColor=none;align=left;verticalAlign=top;spacingLeft=4;spacingRight=4;overflow=hidden;rotatable=0;points=[[0,0.5],[1,0.5]];portConstraint=eastwest;whiteSpace=wrap;html=1;" vertex="1" parent="e3658H9JQ2eBRHRdhJrN-28">
          <mxGeometry y="60" width="280" height="26" as="geometry" />
        </mxCell>
        <mxCell id="e3658H9JQ2eBRHRdhJrN-32" value="HegeAnimal" style="swimlane;fontStyle=1;align=center;verticalAlign=top;childLayout=stackLayout;horizontal=1;startSize=26;horizontalStack=0;resizeParent=1;resizeParentMax=0;resizeLast=0;collapsible=1;marginBottom=0;whiteSpace=wrap;html=1;" vertex="1" parent="1">
          <mxGeometry x="570" y="750" width="280" height="86" as="geometry" />
        </mxCell>
        <mxCell id="e3658H9JQ2eBRHRdhJrN-33" value="+ field: type" style="text;strokeColor=none;fillColor=none;align=left;verticalAlign=top;spacingLeft=4;spacingRight=4;overflow=hidden;rotatable=0;points=[[0,0.5],[1,0.5]];portConstraint=eastwest;whiteSpace=wrap;html=1;" vertex="1" parent="e3658H9JQ2eBRHRdhJrN-32">
          <mxGeometry y="26" width="280" height="26" as="geometry" />
        </mxCell>
        <mxCell id="e3658H9JQ2eBRHRdhJrN-34" value="" style="line;strokeWidth=1;fillColor=none;align=left;verticalAlign=middle;spacingTop=-1;spacingLeft=3;spacingRight=3;rotatable=0;labelPosition=right;points=[];portConstraint=eastwest;strokeColor=inherit;" vertex="1" parent="e3658H9JQ2eBRHRdhJrN-32">
          <mxGeometry y="52" width="280" height="8" as="geometry" />
        </mxCell>
        <mxCell id="e3658H9JQ2eBRHRdhJrN-35" value="+ method(type): type" style="text;strokeColor=none;fillColor=none;align=left;verticalAlign=top;spacingLeft=4;spacingRight=4;overflow=hidden;rotatable=0;points=[[0,0.5],[1,0.5]];portConstraint=eastwest;whiteSpace=wrap;html=1;" vertex="1" parent="e3658H9JQ2eBRHRdhJrN-32">
          <mxGeometry y="60" width="280" height="26" as="geometry" />
        </mxCell>
        <mxCell id="e3658H9JQ2eBRHRdhJrN-36" value="Extends" style="endArrow=block;endSize=16;endFill=0;html=1;rounded=0;entryX=0.767;entryY=1.002;entryDx=0;entryDy=0;entryPerimeter=0;exitX=0.41;exitY=-0.031;exitDx=0;exitDy=0;exitPerimeter=0;" edge="1" parent="1" source="e3658H9JQ2eBRHRdhJrN-32" target="e3658H9JQ2eBRHRdhJrN-5">
          <mxGeometry width="160" relative="1" as="geometry">
            <mxPoint x="830" y="570" as="sourcePoint" />
            <mxPoint x="645" y="511" as="targetPoint" />
            <Array as="points" />
          </mxGeometry>
        </mxCell>
      </root>
    </mxGraphModel>
  </diagram>
</mxfile>
